<?xml version="1.0" standalone="no"?>
<!DOCTYPE svg PUBLIC "-//W3C//DTD SVG 20010904//EN"
 "http://www.w3.org/TR/2001/REC-SVG-20010904/DTD/svg10.dtd">
<svg version="1.0" xmlns="http://www.w3.org/2000/svg"
 width="700.000000pt" height="700.000000pt" viewBox="0 0 700.000000 700.000000"
 preserveAspectRatio="xMidYMid meet">
<metadata>
Created by potrace 1.14, written by Peter Selinger 2001-2017
</metadata>
<g transform="translate(0.000000,700.000000) scale(0.100000,-0.100000)"
fill="#000000" stroke="none">
<path d="M4608 6374 c-75 -18 -122 -42 -182 -95 -42 -38 -62 -70 -156 -263
-59 -122 -124 -255 -143 -296 -19 -41 -65 -138 -102 -215 -37 -77 -92 -192
-122 -255 -31 -63 -87 -180 -126 -260 -38 -80 -93 -194 -122 -255 -99 -208
-153 -320 -225 -470 -40 -82 -91 -190 -115 -240 -23 -49 -77 -162 -120 -250
-43 -88 -99 -205 -125 -260 -72 -152 -149 -313 -235 -490 -42 -88 -95 -198
-117 -245 -23 -47 -75 -155 -116 -240 -41 -85 -91 -191 -112 -235 -21 -44 -72
-152 -115 -240 -74 -153 -115 -239 -230 -480 -29 -60 -85 -177 -125 -260 -76
-159 -89 -188 -96 -220 -33 -139 6 -276 107 -377 139 -138 363 -151 518 -28
78 62 68 43 341 615 29 61 80 166 113 235 139 291 182 381 232 485 29 61 83
173 120 250 110 230 175 364 230 480 29 61 85 178 125 260 40 83 92 191 115
240 24 50 73 153 110 230 37 77 93 194 125 260 71 148 163 340 242 505 34 69
85 177 115 240 31 63 84 176 120 250 36 74 88 182 116 240 27 58 79 166 114
240 335 697 312 645 320 735 21 260 -226 471 -479 409z"/>
<path d="M1364 5504 c-126 -26 -196 -81 -292 -229 -35 -55 -74 -116 -87 -135
-12 -19 -80 -125 -150 -235 -70 -110 -142 -222 -160 -250 -18 -27 -114 -178
-214 -335 -99 -157 -186 -292 -191 -300 -6 -8 -61 -94 -122 -190 -130 -205
-150 -256 -144 -371 6 -102 25 -140 232 -462 182 -283 490 -764 727 -1137 89
-140 179 -271 200 -292 219 -217 577 -114 663 191 11 41 7 144 -9 196 -16 55
-62 133 -250 425 -69 107 -171 267 -227 355 -56 88 -186 292 -290 454 l-188
294 69 106 c37 58 83 131 102 161 19 30 101 159 182 285 81 127 179 280 217
340 38 61 96 151 128 200 33 50 74 115 93 145 19 30 60 95 91 145 66 103 88
171 88 264 -1 241 -230 424 -468 375z"/>
<path d="M5484 5504 c-186 -38 -315 -192 -316 -379 0 -93 23 -159 102 -283 36
-56 76 -120 90 -142 59 -95 198 -311 242 -378 26 -40 48 -75 48 -78 0 -2 5
-10 10 -17 6 -7 106 -160 222 -342 116 -181 221 -346 233 -366 l23 -36 -419
-654 c-540 -844 -518 -808 -539 -883 -11 -36 -15 -144 -7 -176 29 -127 111
-230 217 -277 98 -44 171 -52 261 -29 124 32 192 90 290 245 33 53 94 148 134
211 40 63 108 169 150 235 42 66 134 210 206 320 71 110 134 209 139 220 5 11
39 65 75 120 36 55 84 129 107 165 23 36 71 110 107 165 106 163 134 226 137
309 3 88 -11 158 -44 215 -14 24 -92 148 -173 275 -82 127 -182 285 -224 351
-90 141 -181 284 -195 305 -5 8 -66 103 -134 210 -207 325 -237 371 -301 470
-89 136 -160 195 -266 219 -74 17 -112 18 -175 5z"/>
</g>
</svg>
